<svg width="203" height="64" viewBox="0 0 203 64" fill="none" xmlns="http://www.w3.org/2000/svg">
<path d="M14.2498 0.00320132C14.8674 1.32215e-06 15.4791 1.32231e-06 16.0982 1.32231e-06H185.949C186.556 1.32231e-06 187.173 -0.000158678 187.779 0.00304132C188.2 0.00552334 188.628 0.0122716 189.052 0.0189321C189.147 0.0204294 189.242 0.0219223 189.336 0.0233613C190.468 0.0352464 191.597 0.129766 192.713 0.306081C193.834 0.486753 194.919 0.824876 195.935 1.30928C197.965 2.29765 199.618 3.86438 200.66 5.78912C201.169 6.74807 201.522 7.77485 201.705 8.83424C201.894 9.89311 201.998 10.9638 202.019 12.0374C202.026 12.5282 202.026 13.0203 202.026 13.511C202.039 14.0907 202.039 14.6718 202.039 15.2579V48.7437C202.039 49.3344 202.039 49.9125 202.026 50.4938C202.026 50.9906 202.026 51.4718 202.019 51.9688C201.998 53.0424 201.894 54.113 201.705 55.1718C201.522 56.2319 201.17 57.2593 200.66 58.2187C200.142 59.1735 199.469 60.0452 198.665 60.8016C197.867 61.5646 196.945 62.2013 195.935 62.6875C194.919 63.1732 193.834 63.5134 192.713 63.6968C191.596 63.8717 190.468 63.9663 189.336 63.9797C188.822 63.9906 188.294 63.9968 187.779 63.9968C187.173 64 186.556 64 185.949 64H16.0982C15.4791 64 14.8674 64 14.2499 63.9968C13.7329 63.9968 13.22 63.9906 12.6983 63.9797C11.5647 63.9655 10.4337 63.871 9.31496 63.6968C8.19784 63.5146 7.11594 63.1744 6.10552 62.6875C5.09393 62.2016 4.17124 61.5648 3.37271 60.8016C2.56677 60.0481 1.89499 59.1758 1.38346 58.2187C0.869784 57.26 0.51392 56.2325 0.328221 55.1718C0.140251 54.1132 0.039096 53.0424 0.0256634 51.969C0.0149272 51.6291 0.0107425 51.2966 0.0065249 50.9614C0.00457415 50.8064 0.00261636 50.6509 0 50.4938V13.511C0.00264702 13.354 0.00461995 13.1969 0.00659349 13.0397C0.0107881 12.7055 0.0149854 12.3712 0.0256634 12.0376C0.0390833 10.9641 0.140238 9.89313 0.328221 8.8344C0.51442 7.77429 0.870263 6.74732 1.38346 5.78896C1.89523 4.82878 2.56692 3.95303 3.37271 3.19536C4.17428 2.4355 5.09637 1.79917 6.10552 1.30944C7.11595 0.823845 8.19796 0.485632 9.31496 0.306241C10.4335 0.130673 11.5646 0.0361592 12.6983 0.0235213C12.8052 0.0219154 12.9117 0.020249 13.018 0.0185868C13.4304 0.0121346 13.8388 0.00574583 14.2498 0.00320132Z" fill="black"/>
<path d="M14.2579 62.6001C13.7434 62.6001 13.2415 62.5938 12.7311 62.5829C11.6738 62.5699 10.619 62.4828 9.57534 62.3221C8.60215 62.1633 7.65941 61.8677 6.7782 61.4453C5.90504 61.0265 5.10865 60.4773 4.41953 59.8188C3.72039 59.168 3.13831 58.4133 2.69637 57.5844C2.24961 56.7501 1.94042 55.8559 1.77958 54.9329C1.60594 53.941 1.51203 52.9382 1.49864 51.9329C1.48783 51.5954 1.47382 50.4721 1.47382 50.4721V13.5109C1.47382 13.5109 1.48867 12.4047 1.49864 12.0796C1.5115 11.0759 1.60491 10.0746 1.77806 9.08438C1.93922 8.15881 2.24867 7.26201 2.6957 6.42502C3.13594 5.5967 3.71471 4.84134 4.40957 4.18822C5.1037 3.5289 5.90267 2.97686 6.77736 2.55222C7.65656 2.13126 8.59754 1.8379 9.56876 1.68198C10.6159 1.51977 11.6744 1.43212 12.7353 1.41974L14.2587 1.3999H187.771L189.313 1.42022C190.364 1.43206 191.413 1.51903 192.451 1.68038C193.432 1.8383 194.383 2.13375 195.272 2.55702C197.024 3.41276 198.45 4.76663 199.349 6.42886C199.789 7.26011 200.094 8.14965 200.253 9.06726C200.428 10.0656 200.526 11.0747 200.546 12.0866C200.551 12.5397 200.551 13.0265 200.551 13.5109C200.565 14.1109 200.565 14.682 200.565 15.2578V48.7436C200.565 49.3249 200.565 49.8921 200.551 50.4639C200.551 50.9842 200.551 51.4609 200.545 51.9514C200.525 52.9453 200.428 53.9365 200.256 54.917C200.098 55.8467 199.791 56.7479 199.344 57.589C198.899 58.4089 198.321 59.1571 197.63 59.8061C196.94 60.4682 196.142 61.0206 195.267 61.4421C194.38 61.8677 193.431 62.1643 192.451 62.3218C191.407 62.4834 190.352 62.5706 189.295 62.5828C188.79 62.594 188.285 62.5997 187.78 62.5999L185.949 62.6031L14.2579 62.6001Z" fill="black"/>
<path d="M41.8193 32.4816C41.8375 31.1462 42.2118 29.8368 42.9074 28.6753C43.6031 27.5138 44.5974 26.5379 45.798 25.8384C45.0353 24.8061 44.0291 23.9566 42.8594 23.3574C41.6896 22.7581 40.3886 22.4255 39.0595 22.3861C36.2242 22.104 33.4757 23.9938 32.0308 23.9938C30.5582 23.9938 28.3337 22.4141 25.9384 22.4608C24.389 22.5082 22.879 22.9351 21.5555 23.7C20.232 24.4649 19.1401 25.5416 18.3863 26.8253C15.121 32.1829 17.5566 40.0565 20.6847 44.387C22.2496 46.5077 24.0785 48.8763 26.4718 48.7923C28.8135 48.7003 29.6881 47.3771 32.5152 47.3771C35.3158 47.3771 36.1364 48.7923 38.5781 48.7389C41.0911 48.7003 42.6743 46.609 44.1844 44.4683C45.3088 42.9573 46.174 41.2874 46.748 39.5203C45.2881 38.9351 44.0422 37.9557 43.1657 36.704C42.2893 35.4523 41.821 33.9838 41.8193 32.4816ZM37.2073 19.5379C38.5775 17.9792 39.2525 15.9757 39.089 13.953C36.9957 14.1613 35.0621 15.1094 33.6734 16.6083C32.9944 17.3406 32.4744 18.1925 32.1431 19.1153C31.8117 20.0381 31.6756 21.0138 31.7424 21.9866C32.7894 21.9968 33.8253 21.7817 34.7719 21.3576C35.7185 20.9334 36.5512 20.3113 37.2073 19.5379ZM71.4224 43.424H63.4306L61.5114 48.7942H58.1262L65.696 28.9254H69.2129L76.7826 48.7942H73.3399L71.4224 43.424ZM64.2582 40.9458H70.593L67.4702 32.2302H67.3827L64.2582 40.9458ZM93.1305 41.5522C93.1305 46.0536 90.588 48.9458 86.7513 48.9458C85.7794 48.994 84.8128 48.7818 83.9622 48.3336C83.1115 47.8854 82.4113 47.2192 81.9416 46.4114H81.869V53.5864H78.7314V34.3083H81.7686V36.7178H81.8263C82.3176 35.9138 83.0296 35.2511 83.8867 34.8001C84.7437 34.3492 85.7138 34.1269 86.6936 34.1568C90.5732 34.1568 93.1305 37.063 93.1305 41.552V41.5522ZM89.9054 41.5522C89.9054 38.6194 88.3062 36.6912 85.8659 36.6912C83.4684 36.6912 81.856 38.6598 81.856 41.552C81.856 44.4709 83.4684 46.4256 85.8659 46.4256C88.3062 46.4256 89.9054 44.5115 89.9054 41.552V41.5522ZM109.955 41.5522C109.955 46.0536 107.413 48.9458 103.576 48.9458C102.604 48.9939 101.637 48.7818 100.787 48.3335C99.936 47.8853 99.2358 47.2192 98.7662 46.4114H98.6936V53.5864H95.5559V34.3083H98.593V36.7178H98.6507C99.1419 35.9138 99.854 35.2511 100.711 34.8001C101.568 34.3492 102.538 34.1269 103.518 34.1568C107.398 34.1568 109.955 37.063 109.955 41.552V41.5522ZM106.73 41.5522C106.73 38.6194 105.131 36.6912 102.69 36.6912C100.293 36.6912 98.6804 38.6598 98.6804 41.552C98.6804 44.4709 100.293 46.4256 102.69 46.4256C105.131 46.4256 106.73 44.5115 106.73 41.552V41.5522ZM121.075 43.2584C121.307 45.2286 123.327 46.5224 126.087 46.5224C128.732 46.5224 130.634 45.2286 130.634 43.452C130.634 41.9098 129.487 40.9864 126.77 40.3536L124.052 39.7333C120.202 38.852 118.415 37.1458 118.415 34.377C118.415 30.9488 121.568 28.5942 126.044 28.5942C130.474 28.5942 133.512 30.9488 133.614 34.377H130.446C130.257 32.3942 128.527 31.1973 125.999 31.1973C123.472 31.1973 121.742 32.4083 121.742 34.1707C121.742 35.5755 122.847 36.4021 125.549 37.0347L127.859 37.5723C132.161 38.5363 133.948 40.1739 133.948 43.08C133.948 46.7973 130.824 49.1254 125.854 49.1254C121.205 49.1254 118.065 46.8518 117.863 43.2582L121.075 43.2584ZM140.72 30.8803V34.3083H143.627V36.663H140.72V44.649C140.72 45.8896 141.302 46.4677 142.58 46.4677C142.925 46.462 143.27 46.439 143.612 46.3989V48.7397C143.038 48.8413 142.454 48.8873 141.869 48.877C138.775 48.877 137.568 47.7755 137.568 44.9661V36.663H135.345V34.3083H137.568V30.8803H140.72ZM145.31 41.5522C145.31 36.9942 148.143 34.1302 152.56 34.1302C156.992 34.1302 159.812 36.9942 159.812 41.5522C159.812 46.1224 157.007 48.9739 152.56 48.9739C148.115 48.9739 145.31 46.1224 145.31 41.5522ZM156.615 41.5522C156.615 38.4256 155.103 36.5802 152.56 36.5802C150.018 36.5802 148.507 38.4395 148.507 41.5522C148.507 44.6912 150.018 46.5224 152.56 46.5224C155.103 46.5224 156.615 44.6912 156.615 41.5522ZM162.399 34.3083H165.391V36.7739H165.464C165.666 36.0038 166.142 35.3233 166.812 34.8467C167.482 34.3701 168.304 34.1265 169.141 34.1568C169.502 34.1556 169.863 34.1928 170.216 34.2677V37.049C169.759 36.9168 169.283 36.8561 168.806 36.8693C168.35 36.8517 167.896 36.9279 167.474 37.0925C167.052 37.2571 166.673 37.5063 166.362 37.8229C166.052 38.1396 165.817 38.5161 165.674 38.9268C165.532 39.3375 165.485 39.7725 165.536 40.2021V48.7942H162.399V34.3083ZM184.682 44.5395C184.26 47.1693 181.558 48.9739 178.1 48.9739C173.653 48.9739 170.893 46.1506 170.893 41.6208C170.893 37.0771 173.668 34.1302 177.968 34.1302C182.198 34.1302 184.857 36.8834 184.857 41.2755V42.2942H174.061V42.4739C174.011 43.007 174.081 43.5441 174.267 44.0495C174.453 44.5548 174.751 45.0169 175.14 45.4049C175.528 45.793 176 46.0983 176.523 46.3004C177.046 46.5025 177.608 46.5968 178.173 46.5771C178.914 46.643 179.658 46.4803 180.294 46.1131C180.93 45.746 181.425 45.1941 181.703 44.5395H184.682ZM174.076 40.2162H181.718C181.746 39.7368 181.669 39.2571 181.492 38.8071C181.316 38.3572 181.043 37.9467 180.691 37.6015C180.339 37.2563 179.915 36.9837 179.447 36.801C178.978 36.6182 178.475 36.5292 177.968 36.5395C177.457 36.5366 176.951 36.6297 176.478 36.8133C176.005 36.9969 175.575 37.2674 175.214 37.6092C174.852 37.951 174.565 38.3574 174.369 38.8048C174.174 39.2523 174.074 39.7319 174.076 40.2162ZM63.865 13.9701C64.5228 13.9253 65.1829 14.0195 65.7977 14.2458C66.4125 14.4721 66.9666 14.8249 67.4201 15.2787C67.8735 15.7325 68.2151 16.276 68.42 16.8701C68.625 17.4641 68.6883 18.0939 68.6053 18.7139C68.6053 21.7638 66.8658 23.5171 63.865 23.5171H60.226V13.9699L63.865 13.9701ZM61.7908 22.1669H63.6902C64.1603 22.1935 64.6307 22.1204 65.0672 21.953C65.5037 21.7856 65.8953 21.5281 66.2135 21.1992C66.5318 20.8703 66.7686 20.4783 66.9068 20.0517C67.045 19.6252 67.0811 19.1747 67.0125 18.7333C67.0761 18.2935 67.0364 17.8459 66.8961 17.4225C66.7557 16.999 66.5183 16.6102 66.2008 16.2839C65.8833 15.9576 65.4936 15.7019 65.0595 15.5351C64.6255 15.3684 64.1579 15.2946 63.6902 15.3192H61.7908V22.1669ZM70.3729 19.9115C70.3251 19.438 70.3822 18.9603 70.5406 18.509C70.6991 18.0577 70.9553 17.6428 71.2929 17.2908C71.6304 16.9388 72.0419 16.6576 72.5009 16.4651C72.9599 16.2727 73.4562 16.1733 73.9581 16.1733C74.46 16.1733 74.9564 16.2727 75.4154 16.4651C75.8744 16.6576 76.2859 16.9388 76.6234 17.2908C76.961 17.6428 77.2172 18.0577 77.3757 18.509C77.5341 18.9603 77.5912 19.438 77.5434 19.9115C77.5923 20.3855 77.5359 20.864 77.3779 21.3161C77.22 21.7683 76.964 22.1841 76.6263 22.5369C76.2886 22.8896 75.8768 23.1715 75.4173 23.3645C74.9578 23.5574 74.4607 23.657 73.9581 23.657C73.4556 23.657 72.9585 23.5574 72.499 23.3645C72.0395 23.1715 71.6277 22.8896 71.29 22.5369C70.9523 22.1841 70.6963 21.7683 70.5383 21.3161C70.3804 20.864 70.324 20.3855 70.3729 19.9115ZM76.0002 19.9115C76.0002 18.3498 75.2599 17.4365 73.9607 17.4365C72.6564 17.4365 71.9228 18.3498 71.9228 19.9115C71.9228 21.4858 72.6566 22.392 73.9607 22.392C75.2599 22.392 76.0002 21.4795 76.0002 19.9115ZM87.0753 23.517H85.5186L83.9474 18.2107H83.8287L82.2641 23.517H80.7225L78.6269 16.3122H80.1486L81.5106 21.8098H81.6227L83.1858 16.3122H84.6252L86.1883 21.8098H86.307L87.6622 16.3122H89.1627L87.0753 23.517ZM90.9252 16.3123H92.3696V17.4568H92.4817C92.6719 17.0457 92.9927 16.7011 93.3994 16.471C93.8061 16.2409 94.2784 16.1367 94.7505 16.1731C95.1205 16.1468 95.4919 16.1996 95.8373 16.3278C96.1828 16.4559 96.4934 16.6561 96.7461 16.9135C96.9988 17.1708 97.1872 17.4787 97.2973 17.8144C97.4074 18.1502 97.4363 18.505 97.382 18.8528V23.5168H95.8816V19.2099C95.8816 18.0522 95.3506 17.4763 94.241 17.4763C93.9898 17.4652 93.7391 17.5058 93.506 17.5951C93.273 17.6844 93.063 17.8205 92.8906 17.9939C92.7182 18.1673 92.5874 18.374 92.5071 18.5998C92.4268 18.8256 92.3991 19.0651 92.4256 19.3021V23.517H90.9252V16.3123ZM99.7728 13.4997H101.273V23.517H99.7728V13.4997ZM103.359 19.9115C103.311 19.438 103.368 18.9602 103.527 18.5088C103.685 18.0575 103.941 17.6424 104.279 17.2904C104.617 16.9384 105.028 16.6571 105.487 16.4647C105.946 16.2722 106.443 16.1728 106.945 16.1728C107.447 16.1728 107.943 16.2722 108.402 16.4647C108.861 16.6571 109.273 16.9384 109.61 17.2904C109.948 17.6424 110.204 18.0575 110.363 18.5088C110.521 18.9602 110.578 19.438 110.53 19.9115C110.579 20.3855 110.522 20.8638 110.364 21.3158C110.206 21.7678 109.95 22.1835 109.612 22.5361C109.275 22.8887 108.863 23.1705 108.404 23.3633C107.944 23.5561 107.447 23.6557 106.945 23.6557C106.442 23.6557 105.945 23.5561 105.486 23.3633C105.026 23.1705 104.615 22.8887 104.277 22.5361C103.939 22.1835 103.683 21.7678 103.525 21.3158C103.367 20.8638 103.31 20.3855 103.359 19.9115ZM108.986 19.9115C108.986 18.3498 108.246 17.4365 106.947 17.4365C105.642 17.4365 104.909 18.3498 104.909 19.9115C104.909 21.4858 105.643 22.392 106.947 22.392C108.246 22.392 108.986 21.4795 108.986 19.9115ZM112.11 21.4795C112.11 20.1826 113.129 19.4349 114.938 19.3286L116.997 19.2162V18.5942C116.997 17.8333 116.466 17.4037 115.441 17.4037C114.603 17.4037 114.023 17.695 113.856 18.2045H112.403C112.557 16.9669 113.785 16.1733 115.51 16.1733C117.416 16.1733 118.491 17.0725 118.491 18.5942V23.517H117.046V22.5045H116.928C116.687 22.8677 116.348 23.1637 115.947 23.3625C115.546 23.5612 115.096 23.6555 114.644 23.6357C114.325 23.6671 114.002 23.6349 113.697 23.5409C113.392 23.447 113.111 23.2935 112.872 23.0904C112.634 22.8873 112.442 22.639 112.311 22.3615C112.18 22.084 112.111 21.7836 112.11 21.4795ZM116.997 20.8638V20.2614L115.14 20.3739C114.093 20.4403 113.619 20.7779 113.619 21.413C113.619 22.0614 114.212 22.4389 115.028 22.4389C115.267 22.4618 115.509 22.4389 115.739 22.3716C115.968 22.3042 116.181 22.1938 116.365 22.0469C116.549 21.8999 116.699 21.7194 116.808 21.5162C116.916 21.313 116.981 21.0911 116.997 20.8638ZM120.463 19.9115C120.463 17.6349 121.698 16.1928 123.619 16.1928C124.094 16.172 124.565 16.2799 124.978 16.5037C125.391 16.7275 125.728 17.0581 125.95 17.4568H126.062V13.4995H127.563V23.5168H126.125V22.3784H126.006C125.767 22.7744 125.418 23.1009 124.997 23.3224C124.577 23.544 124.1 23.6523 123.619 23.6355C121.685 23.6355 120.463 22.1933 120.463 19.9114V19.9115ZM122.013 19.9115C122.013 21.4395 122.773 22.3592 124.044 22.3592C125.309 22.3592 126.09 21.4264 126.09 19.9176C126.09 18.4162 125.3 17.4701 124.044 17.4701C122.781 17.4701 122.013 18.3958 122.013 19.9115ZM133.77 19.9115C133.723 19.438 133.78 18.9603 133.938 18.509C134.097 18.0577 134.353 17.6428 134.69 17.2908C135.028 16.9388 135.439 16.6576 135.898 16.4651C136.357 16.2727 136.854 16.1733 137.356 16.1733C137.858 16.1733 138.354 16.2727 138.813 16.4651C139.272 16.6576 139.683 16.9388 140.021 17.2908C140.359 17.6428 140.615 18.0577 140.773 18.509C140.932 18.9603 140.989 19.438 140.941 19.9115C140.99 20.3855 140.933 20.864 140.775 21.3161C140.617 21.7683 140.361 22.1841 140.024 22.5369C139.686 22.8896 139.274 23.1715 138.815 23.3645C138.355 23.5574 137.858 23.657 137.356 23.657C136.853 23.657 136.356 23.5574 135.897 23.3645C135.437 23.1715 135.025 22.8896 134.688 22.5369C134.35 22.1841 134.094 21.7683 133.936 21.3161C133.778 20.864 133.722 20.3855 133.77 19.9115ZM139.398 19.9115C139.398 18.3498 138.657 17.4365 137.358 17.4365C136.054 17.4365 135.32 18.3498 135.32 19.9115C135.32 21.4858 136.054 22.392 137.358 22.392C138.657 22.392 139.398 21.4795 139.398 19.9115ZM142.954 16.3123H144.399V17.4568H144.511C144.701 17.0457 145.022 16.7011 145.428 16.471C145.835 16.2409 146.307 16.1367 146.779 16.1731C147.149 16.1468 147.521 16.1996 147.866 16.3278C148.212 16.4559 148.522 16.6561 148.775 16.9135C149.028 17.1708 149.216 17.4787 149.326 17.8144C149.436 18.1502 149.465 18.505 149.411 18.8528V23.5168H147.911V19.2099C147.911 18.0522 147.38 17.4763 146.27 17.4763C146.019 17.4652 145.768 17.5058 145.535 17.5951C145.302 17.6844 145.092 17.8205 144.92 17.9939C144.747 18.1673 144.616 18.374 144.536 18.5998C144.456 18.8256 144.428 19.0651 144.455 19.3021V23.517H142.954L142.954 16.3123ZM157.889 14.5186V16.3451H159.536V17.5427H157.889V21.2474C157.889 22.0021 158.217 22.3326 158.964 22.3326C159.155 22.332 159.346 22.321 159.536 22.2997V23.4842C159.267 23.5298 158.994 23.5541 158.72 23.5568C157.052 23.5568 156.387 23.0005 156.387 21.6115V17.5427H155.18V16.345H156.387V14.5187L157.889 14.5186ZM161.586 13.4997H163.073V17.4701H163.192C163.391 17.0551 163.721 16.7086 164.136 16.4776C164.55 16.2466 165.03 16.1425 165.51 16.1794C165.878 16.1604 166.246 16.2186 166.587 16.3499C166.929 16.4811 167.236 16.6822 167.486 16.9388C167.736 17.1953 167.923 17.501 168.034 17.8341C168.145 18.1671 168.177 18.5193 168.128 18.8654V23.517H166.626V19.2162C166.626 18.0653 166.061 17.4826 165.001 17.4826C164.743 17.4625 164.483 17.4961 164.24 17.581C163.998 17.6659 163.778 17.8 163.595 17.974C163.413 18.148 163.273 18.3576 163.185 18.5882C163.097 18.8188 163.063 19.0649 163.086 19.3091V23.517H161.586V13.4997ZM176.877 21.5715C176.673 22.23 176.231 22.7996 175.629 23.1807C175.027 23.5617 174.302 23.73 173.583 23.656C173.082 23.6685 172.584 23.5776 172.124 23.3896C171.664 23.2015 171.252 22.9209 170.918 22.567C170.584 22.2132 170.335 21.7947 170.189 21.3406C170.042 20.8865 170.002 20.4076 170.071 19.9373C170.004 19.4654 170.045 18.9855 170.191 18.53C170.337 18.0745 170.584 17.6541 170.917 17.2972C171.249 16.9402 171.659 16.6551 172.117 16.4612C172.576 16.2673 173.074 16.169 173.576 16.1731C175.691 16.1731 176.968 17.5427 176.968 19.8051V20.3013H171.599V20.381C171.576 20.6453 171.611 20.9115 171.702 21.1623C171.793 21.4131 171.939 21.643 172.13 21.8373C172.32 22.0317 172.552 22.1861 172.809 22.2907C173.066 22.3954 173.344 22.4479 173.624 22.445C173.983 22.4858 174.346 22.4246 174.668 22.269C174.99 22.1135 175.256 21.8707 175.432 21.5715H176.877ZM171.599 19.2498H175.439C175.458 19.0079 175.423 18.7651 175.337 18.5367C175.251 18.3084 175.116 18.0996 174.94 17.9238C174.763 17.7481 174.55 17.6092 174.314 17.5161C174.078 17.423 173.823 17.3778 173.568 17.3834C173.308 17.3803 173.051 17.4264 172.81 17.5191C172.57 17.6118 172.352 17.7492 172.168 17.9232C171.985 18.0971 171.84 18.3041 171.742 18.5319C171.644 18.7598 171.596 19.0038 171.599 19.2498Z" fill="white"/>
</svg>
