<svg width="194" height="64" viewBox="0 0 194 64" fill="none" xmlns="http://www.w3.org/2000/svg">
<path d="M185.938 0H7.18904C3.2566 0 0.0390625 3.59999 0.0390625 8.00004V56C0.0390625 60.4 3.25653 64 7.18904 64H185.938C189.871 64 193.088 60.4 193.088 56V8.00004C193.088 3.59999 189.871 0 185.938 0Z" fill="black"/>
<path fill-rule="evenodd" clip-rule="evenodd" d="M7.18904 0H185.938C189.871 0 193.088 3.59999 193.088 8.00004V56C193.088 60.4 189.871 64 185.938 64H7.18904C3.25653 64 0.0390625 60.4 0.0390625 56V8.00004C0.0390625 3.59999 3.2566 0 7.18904 0Z" fill="black"/>
<path d="M185.126 63.0632H8.0394C4.18557 63.0632 1.03236 59.5697 1.03236 55.2998V8.71895C1.03236 4.449 4.18551 0.955444 8.0394 0.955444H185.126C188.98 0.955444 192.133 4.449 192.133 8.71895V55.2997C192.133 59.5697 188.98 63.0632 185.126 63.0632Z" fill="black"/>
<path d="M67.8471 16.3895C67.8471 17.73 67.4923 18.7975 66.7818 19.5938C65.9746 20.5407 64.9227 21.0145 63.6296 21.0145C62.3912 21.0145 61.3383 20.5345 60.4724 19.5732C59.605 18.6125 59.1721 17.4213 59.1721 16.0001C59.1721 14.5781 59.605 13.3876 60.4724 12.4262C61.3383 11.4657 62.3912 10.985 63.6296 10.985C64.244 10.985 64.8323 11.1195 65.3909 11.3876C65.9494 11.6564 66.3975 12.0132 66.7326 12.46L65.9785 13.3044C65.4105 12.545 64.6284 12.1656 63.6296 12.1656C62.7264 12.1656 61.9455 12.5207 61.2864 13.2313C60.6272 13.9426 60.2976 14.8651 60.2976 16.0001C60.2976 17.1351 60.6272 18.0575 61.2864 18.7689C61.9455 19.4795 62.7264 19.8345 63.6296 19.8345C64.5877 19.8345 65.3864 19.4775 66.026 18.7626C66.4411 18.2969 66.6811 17.6495 66.7454 16.8182H63.6295V15.665H67.7872C67.8274 15.9158 67.847 16.1564 67.847 16.3895" fill="white"/>
<path d="M67.8471 16.3895H67.704C67.7029 17.6994 67.3609 18.7168 66.6805 19.4806L66.679 19.4819L66.6784 19.4832C65.8969 20.3975 64.8924 20.8525 63.6295 20.8544C62.4242 20.8525 61.4153 20.3925 60.5728 19.46C59.7323 18.5256 59.3166 17.385 59.315 16C59.3166 14.6144 59.7323 13.4744 60.5728 12.5407C61.4153 11.6075 62.4242 11.1469 63.6295 11.1449C64.2255 11.1449 64.7931 11.2751 65.3343 11.5344C65.8761 11.7957 66.3041 12.1381 66.623 12.5633L66.7325 12.46L66.6315 12.3469L65.8773 13.1918L65.9784 13.3043L66.0885 13.2019C65.494 12.405 64.6597 12.0032 63.6295 12.0056C62.6929 12.0043 61.8689 12.3788 61.1873 13.1164C60.4992 13.8563 60.1535 14.8307 60.1546 16C60.1535 17.1695 60.4992 18.1437 61.1873 18.8837C61.8689 19.6213 62.6929 19.9957 63.6295 19.9944C64.6193 19.9964 65.4629 19.6206 66.127 18.8757C66.5705 18.3781 66.822 17.6888 66.8879 16.8318L66.9012 16.6581H63.7725V15.825H67.7872V15.665L67.6464 15.6931C67.6855 15.9357 67.704 16.1663 67.704 16.3895H67.99C67.99 16.1463 67.9698 15.8963 67.9279 15.6364L67.9067 15.505H63.4866V16.9781H66.7454V16.8181L66.603 16.8044C66.5399 17.6095 66.3108 18.2157 65.9248 18.6495C65.3104 19.3345 64.5563 19.6725 63.6295 19.6744C62.7599 19.6731 62.022 19.3381 61.3857 18.6538C60.7557 17.9719 60.4422 17.1013 60.4406 16C60.4422 14.8987 60.7557 14.0282 61.3857 13.3463C62.022 12.6619 62.7598 12.3269 63.6295 12.3256C64.5965 12.3282 65.3267 12.6856 65.8691 13.4075L65.9696 13.5413L66.8337 12.5732L66.9264 12.4695L66.842 12.3575C66.4907 11.8888 66.0226 11.5169 65.4472 11.2407C64.8708 10.9637 64.2625 10.825 63.6295 10.825C62.3582 10.8237 61.2612 11.3237 60.3713 12.3132C59.4782 13.3007 59.0279 14.5419 59.0292 16C59.0279 17.4574 59.4781 18.6994 60.3719 19.6875C61.2612 20.6763 62.3582 21.1757 63.6295 21.1744C64.9534 21.1757 66.0517 20.6837 66.8851 19.7044L66.7817 19.5938L66.8828 19.7069C67.6235 18.8788 67.991 17.76 67.99 16.3895H67.847H67.8471ZM74.4383 12.3794H70.531V15.4232H74.0546V16.5768H70.531V19.6206H74.4383V20.8H69.4294V11.2H74.4383V12.3794Z" fill="white"/>
<path d="M74.4383 12.3794V12.2194H70.388V15.5832H73.9116V16.4164L70.3879 16.4168V19.7807H74.2952V20.64H69.5724V11.36H74.2952V12.3794H74.4383V12.2194V12.3794H74.5812V11.04H69.2864V20.96H74.5812V19.4607H70.6739V16.7368H74.1976V15.2633H70.6739V12.5394H74.5812V12.3794H74.4383ZM79.0874 20.8001H77.9842V12.3793H75.5878V11.2H81.4838V12.3793H79.0874V20.7999" fill="white"/>
<path d="M79.0875 20.8001V20.64H78.1273V12.2194H75.731V11.3601H81.3409V12.2194H78.9446V20.8H79.0875V20.64V20.8H79.2306V12.5394H81.6269V11.04H75.445V12.5393H77.8413V20.9599H79.2306V20.7999H79.0875V20.8001ZM85.7499 20.8001V11.2H86.852V20.7999H85.7499" fill="white"/>
<path d="M85.7498 20.8001H85.8928V11.36H86.7088V20.64H85.7498V20.8H85.8928H85.7498V20.96H86.9948V11.04H85.6068V20.96H85.7498V20.8V20.8001ZM91.7423 20.8001H90.6391V12.3793H88.2428V11.2H94.1387V12.3793H91.7423V20.7999" fill="white"/>
<path d="M91.7425 20.8001V20.6401H90.7823V12.2194H88.3861V11.3601H93.9959V12.2194H91.5996V20.8H91.7425V20.6401V20.8H91.8856V12.5394H94.2819V11.0401H88.1001V12.5393H90.4963V20.96H91.8856V20.8H91.7425V20.8001ZM99.8232 18.7558C100.458 19.4751 101.235 19.8344 102.154 19.8344C103.073 19.8344 103.851 19.4751 104.485 18.7558C105.12 18.0364 105.439 17.1169 105.439 16.0001C105.439 14.8833 105.12 13.9638 104.485 13.2444C103.851 12.525 103.073 12.1656 102.154 12.1656C101.235 12.1656 100.458 12.525 99.8232 13.2444C99.1891 13.9638 98.8708 14.8833 98.8708 16.0001C98.8708 17.1169 99.1891 18.0364 99.8232 18.7558ZM105.3 19.5594C104.457 20.53 103.408 21.0145 102.154 21.0145C100.9 21.0145 99.851 20.53 99.0093 19.5594C98.1652 18.59 97.7452 17.4033 97.7452 16.0001C97.7452 14.5968 98.1652 13.4099 99.0093 12.4407C99.8511 11.4699 100.9 10.985 102.154 10.985C103.401 10.985 104.447 11.4725 105.295 12.4469C106.141 13.4213 106.564 14.6056 106.564 16.0001C106.564 17.4033 106.142 18.59 105.3 19.5594Z" fill="white"/>
<path d="M99.823 18.7557L99.7213 18.8682C100.38 19.6163 101.202 19.9964 102.154 19.9944C103.106 19.9964 103.929 19.6163 104.586 18.8682C105.249 18.1194 105.583 17.1506 105.582 16C105.582 14.8495 105.249 13.8807 104.586 13.1318C103.929 12.3837 103.106 12.0037 102.154 12.0056C101.202 12.0037 100.38 12.3837 99.7213 13.1318C99.0599 13.8807 98.7258 14.8495 98.7276 16C98.7258 17.1505 99.0599 18.1194 99.7213 18.8682L99.823 18.7557L99.9247 18.6432C99.3181 17.9525 99.0147 17.0837 99.0136 16C99.0147 14.9164 99.3181 14.0476 99.9246 13.3568C100.537 12.6663 101.268 12.3275 102.154 12.3257C103.039 12.3275 103.772 12.6663 104.383 13.3568C104.991 14.0476 105.294 14.9164 105.295 16C105.294 17.0837 104.991 17.9525 104.383 18.6432C103.772 19.3338 103.039 19.6725 102.154 19.6744C101.268 19.6725 100.537 19.3338 99.9246 18.6432L99.823 18.7557ZM105.3 19.5594L105.198 19.4482C104.378 20.3882 103.375 20.8526 102.154 20.8544C100.932 20.8525 99.9297 20.3882 99.1112 19.4482L99.1074 19.4432L99.1112 19.4482C98.293 18.505 97.8892 17.3676 97.8881 16C97.8892 14.6325 98.293 13.495 99.1112 12.5519C99.9297 11.6118 100.932 11.1469 102.154 11.145C103.367 11.1469 104.368 11.6138 105.192 12.5587C106.013 13.5063 106.419 14.6419 106.421 16C106.419 17.3676 106.014 18.505 105.198 19.4482L105.3 19.5594L105.403 19.6706C106.27 18.6744 106.708 17.4388 106.707 16C106.708 14.5695 106.268 13.3363 105.397 12.3357C104.526 11.3312 103.434 10.8232 102.154 10.825C100.867 10.8232 99.7722 11.3288 98.9063 12.3295V12.3288C98.0378 13.3256 97.6009 14.5613 97.6021 16C97.6009 17.4388 98.0378 18.6744 98.9063 19.6712L98.9102 19.6757L98.9063 19.6706C99.7722 20.6712 100.867 21.1757 102.154 21.1744C103.44 21.1757 104.535 20.6712 105.403 19.6706L105.3 19.5594ZM108.111 20.8001V11.2H109.453L113.623 18.6681H113.67L113.623 16.818V11.2H114.726V20.7999H113.575L109.213 12.9699H109.165L109.213 14.8206V20.7999H108.111" fill="white"/>
<path d="M108.111 20.8001H108.254V11.36H109.374L113.544 18.8282H113.817L113.766 16.8157V11.3601H114.583V20.64H113.655L109.292 12.81H109.019L109.07 14.8233V20.64H108.111V20.8H108.254H108.111V20.96H109.356V14.8181L109.308 12.9657L109.165 12.97V13.13H109.213V12.97L109.092 13.055L113.496 20.96H114.869V11.04H113.48V16.82L113.527 18.6725L113.67 18.6682V18.5082H113.623V18.6682L113.744 18.5832L109.532 11.04H107.968V20.96H108.111V20.8L108.111 20.8001ZM152.957 48H155.625V27.9981H152.957L152.957 48ZM176.991 35.2033L173.932 43.8751H173.84L170.666 35.2032H167.792L172.552 47.3237L169.838 54.0657H172.622L179.958 35.2032L176.991 35.2033ZM161.859 45.7282C160.983 45.7282 159.765 45.2394 159.765 44.0295C159.765 42.4856 161.284 41.8938 162.594 41.8938C163.768 41.8938 164.318 42.1769 165.032 42.5633C164.824 44.4157 163.399 45.7282 161.859 45.7282ZM162.18 34.7657C160.248 34.7657 158.248 35.7181 157.42 37.8282L159.788 38.9345C160.294 37.8282 161.237 37.4675 162.226 37.4675C163.606 37.4675 165.009 38.3944 165.032 40.0413V40.247C164.548 39.9382 163.514 39.4751 162.249 39.4751C159.696 39.4751 157.097 41.0444 157.097 43.9782C157.097 46.6545 159.19 48.3788 161.535 48.3788C163.33 48.3788 164.318 47.4781 164.94 46.4232H165.032V47.967H167.607V40.2981C167.607 36.7476 165.239 34.7657 162.18 34.7657ZM145.69 37.6381H141.894V30.782H145.69C147.684 30.782 148.817 32.63 148.817 34.21C148.817 35.76 147.684 37.6381 145.69 37.6381ZM145.621 27.9981H139.227V48H141.894V40.4219H145.621C148.578 40.4219 151.485 38.0263 151.485 34.21C151.485 30.3938 148.578 27.9981 145.621 27.9981ZM110.756 45.7319C108.913 45.7319 107.369 44.005 107.369 41.6332C107.369 39.2364 108.913 37.4832 110.756 37.4832C112.576 37.4832 114.005 39.2363 114.005 41.6332C114.005 44.005 112.576 45.7319 110.756 45.7319H110.756ZM113.82 36.3233H113.728C113.129 35.5244 111.977 34.8026 110.526 34.8026C107.485 34.8026 104.697 37.7926 104.697 41.6332C104.697 45.4482 107.485 48.4126 110.526 48.4126C111.977 48.4126 113.129 47.6906 113.728 46.8663H113.82V47.8456C113.82 50.4495 112.576 51.8413 110.572 51.8413C108.936 51.8413 107.923 50.5263 107.507 49.4181L105.181 50.5007C105.849 52.305 107.623 54.522 110.572 54.522C113.705 54.522 116.354 52.4594 116.354 47.4332V35.2151H113.82V36.3233ZM118.197 48H120.87V27.9974H118.197V48ZM124.809 41.4013C124.74 38.7719 126.629 37.4319 127.988 37.4319C129.049 37.4319 129.947 38.0244 130.246 38.8758L124.809 41.4013ZM133.103 39.1331C132.597 37.6119 131.052 34.8026 127.896 34.8026C124.763 34.8026 122.16 37.5607 122.16 41.6076C122.16 45.4226 124.74 48.4126 128.195 48.4126C130.984 48.4126 132.597 46.505 133.264 45.3968L131.191 43.8499C130.5 44.9844 129.555 45.7319 128.195 45.7319C126.836 45.7319 125.869 45.0357 125.247 43.67L133.379 39.9063L133.103 39.1331ZM68.3123 36.8906V39.7775H74.4863C74.302 41.4013 73.8182 42.587 73.0809 43.4119C72.1827 44.4175 70.7774 45.5257 68.3123 45.5257C64.5109 45.5257 61.5393 42.0975 61.5393 37.8443C61.5393 33.5913 64.5109 30.1626 68.3123 30.1626C70.3628 30.1626 71.8598 31.065 72.9658 32.225L74.7858 30.1888C73.2424 28.5387 71.1918 27.2758 68.3123 27.2758C63.1056 27.2758 58.7285 32.0188 58.7285 37.8443C58.7285 43.67 63.1056 48.4126 68.3123 48.4126C71.1231 48.4126 73.2424 47.382 74.9009 45.4482C76.6057 43.5407 77.1358 40.8601 77.1358 38.6951C77.1358 38.0244 77.0899 37.4063 76.9972 36.8906H68.3123ZM84.1551 45.7319C82.3117 45.7319 80.722 44.0306 80.722 41.6076C80.722 39.1587 82.3117 37.4832 84.1551 37.4832C85.9978 37.4832 87.5875 39.1587 87.5875 41.6076C87.5875 44.0306 85.9978 45.7319 84.1551 45.7319ZM84.1551 34.8026C80.7912 34.8026 78.0496 37.6637 78.0496 41.6076C78.0496 45.5257 80.7912 48.4126 84.1551 48.4126C87.5183 48.4126 90.2599 45.5257 90.2599 41.6076C90.2599 37.6637 87.5183 34.8026 84.1551 34.8026ZM97.4729 45.7319C95.6302 45.7319 94.0403 44.0306 94.0403 41.6076C94.0403 39.1587 95.6302 37.4832 97.4729 37.4832C99.3157 37.4832 100.905 39.1587 100.905 41.6076C100.905 44.0306 99.3157 45.7319 97.4729 45.7319H97.4729ZM97.4729 34.8026C94.1091 34.8026 91.3681 37.6637 91.3681 41.6076C91.3681 45.5257 94.1091 48.4126 97.4729 48.4126C100.836 48.4126 103.578 45.5257 103.578 41.6076C103.578 37.6637 100.836 34.8026 97.4729 34.8026H97.4729Z" fill="white"/>
<path d="M15.0663 12.1783C14.5864 12.6628 14.3 13.4708 14.3 14.5434V14.3009V49.6947V49.4615C14.3 50.4521 14.5457 51.217 14.9618 51.7097L15.068 51.8234V51.8239C15.4048 52.164 15.8366 52.3445 16.3316 52.344C16.8152 52.344 17.3593 52.1715 17.9336 51.8072L38.6902 38.6115L45.82 34.0784C46.7255 33.5028 47.2339 32.7603 47.3188 32.004V32.0009C47.2339 31.2428 46.7255 30.5009 45.8201 29.9253L38.6897 25.3927L17.9337 12.197C17.3582 11.8321 16.8137 11.6589 16.3287 11.6589C15.8344 11.6589 15.4031 11.8389 15.0664 12.1783H15.0663Z" fill="#00C1FF"/>
<path d="M15.068 51.823L14.9618 51.7092C14.5457 51.2167 14.3 50.4516 14.3 49.4611V49.6942V14.3092V14.5429C14.3 13.4704 14.5864 12.6623 15.0663 12.1779L32.7837 32.0011L15.068 51.823Z" fill="url(#paint0_linear_0_101)"/>
<path d="M38.6901 38.6116L32.7835 32.0017L38.6896 25.3928L45.8199 29.9253C46.7254 30.501 47.2337 31.2429 47.3187 32.001V32.004C47.2337 32.7604 46.7254 33.503 45.8199 34.0784L38.6902 38.6115" fill="url(#paint1_linear_0_101)"/>
<path d="M16.3315 52.3437C15.8366 52.3443 15.4048 52.1636 15.068 51.8236V51.8231L32.7837 32.0012L38.6902 38.6111L17.9335 51.8069C17.3593 52.1712 16.8151 52.3437 16.3315 52.3437Z" fill="url(#paint2_linear_0_101)"/>
<path d="M32.7836 32.002L15.0662 12.1788C15.4029 11.8394 15.8342 11.6594 16.3285 11.6594C16.8134 11.6594 17.358 11.8324 17.9334 12.1975L38.6896 25.3931L32.7835 32.002" fill="url(#paint3_linear_0_101)"/>
<path d="M16.3322 52.5789C15.8373 52.5789 15.4049 52.3982 15.0681 52.0582L15.0675 52.0588C15.0661 52.0573 15.0646 52.0558 15.0631 52.0545L14.9709 51.9538C14.9681 51.9507 14.9653 51.947 14.9619 51.9433L15.0681 51.8245C15.4049 52.1645 15.8367 52.3451 16.3318 52.3444C16.8153 52.3444 17.3594 52.172 17.9337 51.8076L38.6904 38.612L38.8234 38.7608L38.6887 38.8464L17.9336 52.0413C17.4103 52.3733 16.9125 52.5464 16.4629 52.5752C16.4194 52.5776 16.3758 52.5788 16.3322 52.5788" fill="url(#paint4_linear_0_101)"/>
<path d="M14.9618 51.9425C14.5457 51.4499 14.3 50.6856 14.3 49.6944V49.4613C14.3 50.4518 14.5457 51.2167 14.9618 51.7094L15.068 51.8231L14.9618 51.9425Z" fill="url(#paint5_linear_0_101)"/>
<path d="M38.823 38.7594L38.69 38.6106L45.8198 34.0775C46.7253 33.502 47.2337 32.7595 47.3186 32.0031C47.3186 32.2807 47.2633 32.5582 47.1533 32.8283C46.9315 33.3726 46.487 33.887 45.8199 34.3113L38.823 38.7595" fill="url(#paint6_linear_0_101)"/>
<path d="M47.3187 32.0015C47.2337 31.2433 46.7254 30.5015 45.8199 29.9258L38.6895 25.3933L38.8225 25.2444H38.8231L45.8199 29.6926C46.8182 30.3277 47.3181 31.1645 47.3187 32.0015Z" fill="url(#paint7_linear_0_101)"/>
<path d="M14.3 14.543V14.2985C14.3 14.2103 14.3021 14.1241 14.3061 14.0404V14.0366C14.3061 14.0354 14.3061 14.0342 14.3065 14.0329V14.0235C14.3496 13.1703 14.5864 12.5048 14.9618 12.0604L15.0663 12.1778C14.5864 12.6624 14.3 13.4704 14.3 14.543Z" fill="url(#paint8_linear_0_101)"/>
<path d="M38.6895 25.3927L17.9334 12.1969C17.358 11.832 16.8135 11.6589 16.3286 11.6589C15.8342 11.6589 15.4029 11.8389 15.0662 12.1783L14.9616 12.0608C14.9943 12.0221 15.0282 11.9848 15.0634 11.949C15.0644 11.9477 15.0662 11.9464 15.0673 11.9451C15.4014 11.6083 15.8281 11.4283 16.318 11.4251H16.3286C16.8135 11.4251 17.358 11.5983 17.9334 11.9633L38.8231 25.2433L38.8225 25.2439L38.6895 25.3927Z" fill="url(#paint9_linear_0_101)"/>
<defs>
<linearGradient id="paint0_linear_0_101" x1="25.6224" y1="13.9353" x2="8.66742" y2="29.1377" gradientUnits="userSpaceOnUse">
<stop stop-color="#00A0FF"/>
<stop offset="0.00657" stop-color="#00A1FF"/>
<stop offset="0.2601" stop-color="#00BEFF"/>
<stop offset="0.5122" stop-color="#00D2FF"/>
<stop offset="0.7604" stop-color="#00DFFF"/>
<stop offset="1" stop-color="#00E3FF"/>
</linearGradient>
<linearGradient id="paint1_linear_0_101" x1="48.4219" y1="31.8874" x2="13.8203" y2="31.8874" gradientUnits="userSpaceOnUse">
<stop stop-color="#FFE000"/>
<stop offset="0.4087" stop-color="#FFBD00"/>
<stop offset="0.7754" stop-color="#FFA500"/>
<stop offset="1" stop-color="#FF9C00"/>
</linearGradient>
<linearGradient id="paint2_linear_0_101" x1="35.5544" y1="38.2857" x2="6.84604" y2="63.8385" gradientUnits="userSpaceOnUse">
<stop stop-color="#FF3A44"/>
<stop offset="1" stop-color="#C31162"/>
</linearGradient>
<linearGradient id="paint3_linear_0_101" x1="10.4999" y1="9.23987" x2="23.2967" y2="20.6477" gradientUnits="userSpaceOnUse">
<stop stop-color="#32A071"/>
<stop offset="0.0685" stop-color="#2DA771"/>
<stop offset="0.4762" stop-color="#15CF74"/>
<stop offset="0.8009" stop-color="#06E775"/>
<stop offset="1" stop-color="#00F076"/>
</linearGradient>
<linearGradient id="paint4_linear_0_101" x1="35.5416" y1="42.8715" x2="12.532" y2="63.5029" gradientUnits="userSpaceOnUse">
<stop stop-color="#CC2E36"/>
<stop offset="1" stop-color="#9C0E4E"/>
</linearGradient>
<linearGradient id="paint5_linear_0_101" x1="16.6602" y1="13.9354" x2="1.72302" y2="27.3287" gradientUnits="userSpaceOnUse">
<stop stop-color="#008DE0"/>
<stop offset="0.00657" stop-color="#008DE0"/>
<stop offset="0.2601" stop-color="#00A7E0"/>
<stop offset="0.5122" stop-color="#00B8E0"/>
<stop offset="0.7604" stop-color="#00C4E0"/>
<stop offset="1" stop-color="#00C7E0"/>
</linearGradient>
<linearGradient id="paint6_linear_0_101" x1="48.4219" y1="32.0017" x2="13.8203" y2="32.0017" gradientUnits="userSpaceOnUse">
<stop stop-color="#E0C500"/>
<stop offset="0.4087" stop-color="#E0A600"/>
<stop offset="0.7754" stop-color="#E09100"/>
<stop offset="1" stop-color="#E08900"/>
</linearGradient>
<linearGradient id="paint7_linear_0_101" x1="48.4219" y1="32.003" x2="13.8204" y2="32.003" gradientUnits="userSpaceOnUse">
<stop stop-color="#FFE840"/>
<stop offset="0.4087" stop-color="#FFCE40"/>
<stop offset="0.7754" stop-color="#FFBC40"/>
<stop offset="1" stop-color="#FFB540"/>
</linearGradient>
<linearGradient id="paint8_linear_0_101" x1="16.6456" y1="13.9625" x2="2.32837" y2="26.2437" gradientUnits="userSpaceOnUse">
<stop stop-color="#40B8FF"/>
<stop offset="0.00657" stop-color="#40B9FF"/>
<stop offset="0.2601" stop-color="#40CEFF"/>
<stop offset="0.5122" stop-color="#40DDFF"/>
<stop offset="0.7604" stop-color="#40E7FF"/>
<stop offset="1" stop-color="#40EAFF"/>
</linearGradient>
<linearGradient id="paint9_linear_0_101" x1="10.474" y1="13.4316" x2="20.7489" y2="22.6445" gradientUnits="userSpaceOnUse">
<stop stop-color="#65B895"/>
<stop offset="0.0685" stop-color="#62BD95"/>
<stop offset="0.4762" stop-color="#50DB97"/>
<stop offset="0.8009" stop-color="#44ED98"/>
<stop offset="1" stop-color="#40F498"/>
</linearGradient>
</defs>
</svg>
